<svg width="22" height="22" viewBox="0 0 22 22" fill="none" xmlns="http://www.w3.org/2000/svg">
<path fill-rule="evenodd" clip-rule="evenodd" d="M19.7951 2.83193C19.3907 2.17272 18.6652 1.82508 17.9375 1.91368C17.7664 1.93451 17.4724 2.04779 16.8999 2.45477C16.3414 2.85182 15.6353 3.43912 14.6406 4.26762L13.4789 5.2352V13.5191L14.8559 14.4895C15.8256 15.173 16.5101 15.6546 17.0502 15.9758C17.5996 16.3025 17.8815 16.388 18.0517 16.3981C18.7562 16.4401 19.4384 16.0783 19.8157 15.4351C19.9113 15.2721 20.0028 14.9722 20.0515 14.3196C20.0994 13.6772 20.1 12.8217 20.1 11.6135V6.97857C20.1 5.6629 20.0994 4.72673 20.0477 4.02808C19.9949 3.3134 19.8949 2.99464 19.7951 2.83193ZM11.6789 13.0859V5.71354H5.2566C4.58283 5.71354 4.12386 5.71405 3.76692 5.7391C3.41859 5.76355 3.23493 5.80815 3.10454 5.8637C2.63366 6.06432 2.25174 6.45274 2.05086 6.95156C1.99339 7.09425 1.94909 7.29153 1.92503 7.65427C1.90046 8.02462 1.9 8.49977 1.9 9.19174V10.7377C1.9 11.0623 1.90084 11.1674 1.90779 11.2479C1.99348 12.2399 2.75162 12.9944 3.66851 13.0781C3.74266 13.0849 3.84072 13.0859 4.15789 13.0859H11.6789ZM12.2532 3.91354L13.5194 2.85888C14.4764 2.06174 15.2354 1.42957 15.857 0.98768C16.4713 0.550989 17.0763 0.205236 17.72 0.126876C19.1648 -0.0490247 20.5663 0.646829 21.3294 1.89073C21.6673 2.44169 21.7862 3.13036 21.8428 3.89529C21.9 4.6684 21.9 5.67147 21.9 6.93985V11.6518C21.9 12.8132 21.9 13.736 21.8465 14.4535C21.7932 15.1686 21.6807 15.8133 21.3683 16.3459C20.6576 17.5575 19.3427 18.2782 17.9447 18.195C17.3265 18.1581 16.7354 17.8828 16.1302 17.5229C15.5228 17.1617 14.7813 16.6391 13.8514 15.9838L12.2937 14.8859H11.9V18.356C11.9 20.2892 10.3699 21.9 8.42947 21.9C7.77329 21.9 7.11707 21.7117 6.55572 21.3307C5.30868 20.4842 4.40321 19.7153 3.87463 18.5313C3.44229 17.5629 3.29923 16.3942 3.26613 14.8411C1.56172 14.5732 0.265067 13.1463 0.114472 11.4028C0.0999279 11.2344 0.0999563 11.0449 0.0999958 10.7804C0.0999979 10.7664 0.1 10.7522 0.1 10.7377L0.0999998 9.16132C0.099993 8.50716 0.0999873 7.97212 0.128975 7.53513C0.158915 7.08378 0.222615 6.67287 0.381163 6.27916C0.756308 5.34761 1.47925 4.5996 2.39902 4.20773C2.79013 4.0411 3.19777 3.97462 3.64091 3.94352C4.06834 3.91352 4.59071 3.91353 5.22479 3.91354L12.2532 3.91354ZM5.0681 14.8859C5.10399 16.3237 5.23772 17.1691 5.51826 17.7975C5.8326 18.5016 6.37877 19.0351 7.56665 19.8414C7.81499 20.01 8.11554 20.1 8.42947 20.1C9.32835 20.1 10.1 19.3433 10.1 18.356V14.8859H5.0681Z" fill="#007AFF"/>
</svg>
