<svg width="22" height="23" viewBox="0 0 22 23" fill="none" xmlns="http://www.w3.org/2000/svg">
<path fill-rule="evenodd" clip-rule="evenodd" d="M10.9682 2.9287C5.99232 2.9287 1.98099 6.90594 1.98099 11.7846C1.98099 16.6632 5.99232 20.6405 10.9682 20.6405C15.9442 20.6405 19.9555 16.6632 19.9555 11.7846C19.9555 6.90594 15.9442 2.9287 10.9682 2.9287ZM0.0024147 11.7846C0.0024147 5.78856 4.92439 0.950127 10.9682 0.950127C17.0121 0.950127 21.9341 5.78856 21.9341 11.7846C21.9341 17.7806 17.0121 22.6191 10.9682 22.6191C4.92439 22.6191 0.0024147 17.7806 0.0024147 11.7846ZM14.7907 13.3134C15.3057 13.4961 15.575 14.0616 15.3924 14.5765L14.5087 14.2631C15.3924 14.5765 15.3922 14.5771 15.392 14.5777L15.3916 14.5789L15.3906 14.5815L15.3886 14.5872L15.3835 14.6009C15.3797 14.611 15.375 14.623 15.3694 14.6369C15.3583 14.6646 15.3435 14.6996 15.3247 14.7409C15.2871 14.8233 15.233 14.9316 15.1589 15.0569C15.0112 15.3068 14.7807 15.6302 14.4392 15.9512C13.7379 16.6103 12.6248 17.2042 10.9682 17.2042C9.31172 17.2042 8.19858 16.6104 7.4973 15.9513C7.15578 15.6303 6.92533 15.3069 6.7776 15.057C6.70352 14.9317 6.64939 14.8234 6.6118 14.741C6.59298 14.6997 6.5782 14.6646 6.56707 14.637C6.5615 14.6231 6.55684 14.6111 6.55302 14.601L6.54793 14.5873L6.54585 14.5815L6.54493 14.579L6.54449 14.5777C6.54428 14.5772 6.54408 14.5766 7.43098 14.262L6.54407 14.5766C6.36144 14.0616 6.63083 13.4961 7.14577 13.3135C7.65586 13.1326 8.21556 13.3952 8.40358 13.9007C8.40482 13.9037 8.40759 13.9103 8.41204 13.92C8.42355 13.9453 8.4458 13.9908 8.48085 14.0501C8.55135 14.1694 8.67008 14.3382 8.85233 14.5095C9.19858 14.835 9.83134 15.2256 10.9682 15.2256C12.1051 15.2256 12.7379 14.8349 13.0842 14.5095C13.2664 14.3382 13.3851 14.1694 13.4556 14.0501C13.4907 13.9908 13.5129 13.9452 13.5244 13.92C13.5289 13.9102 13.5317 13.9037 13.5329 13.9007C13.7209 13.3952 14.2806 13.1325 14.7907 13.3134ZM8.40816 13.9133C8.40812 13.9132 8.40821 13.9134 8.40816 13.9133V13.9133Z" fill="#007AFF"/>
</svg>
